<svg width="0" height="0" class="hidden">
  <symbol xmlns="http://www.w3.org/2000/svg" viewBox="0 0 20 20" id="home">
    <title>home</title>
    <path d="M18.672 11H17v6c0 .445-.194 1-1 1h-4v-6H8v6H4c-.806 0-1-.555-1-1v-6H1.328c-.598 0-.47-.324-.06-.748L9.292 2.22c.195-.202.451-.302.708-.312.257.01.513.109.708.312l8.023 8.031c.411.425.539.749-.059.749z"></path>
  </symbol>
  <symbol xmlns="http://www.w3.org/2000/svg" viewBox="0 0 701.86 629.874" id="logo-warner">
    <path d="M292.281 127.28l15.733 20.228-.321 352.545-15.412 18.302S238.34 463.45 217.149 397.95l-26.971 33.714s-72.243-80.912-89.581-210.949l34.677-10.596 24.081 18.302s16.375 80.912 41.419 118.479c0 0-25.044-113.662-21.191-174.346l33.713-1.926 25.044 17.338s-5.779 57.794 21.191 154.118l-1.927-210.949 34.677-3.855m8.588-20.337l-10.715 1.19-34.677 3.853-17.295 1.921.159 17.401.306 33.437-14.384-9.958-5.449-3.772-6.616.378-33.713 1.926-17.045.974-1.082 17.039c-.645 10.16-.541 21.624.091 33.722l-13.517-10.273-7.854-5.968-9.433 2.882-34.677 10.595-15.625 4.774 2.159 16.195c4.132 30.993 11.621 61.857 22.258 91.735a464.867 464.867 0 0 0 31.282 69.299c21.03 37.93 39.97 59.309 40.767 60.2l15.177 16.999 14.236-17.796 6.394-7.992c25.717 53.83 64.961 94.154 66.923 96.15l14.839 15.104 13.639-16.196 15.412-18.302 4.522-5.371.006-7.021.321-352.545.006-6.62-4.064-5.225-15.733-20.228-6.618-8.507zm93.882 17.374s218.655 32.75 114.626 167.603c0 0 117.515 87.654-112.699 225.397l-20.228-18.302V146.471l18.301-22.154m-7.917-20.666l-6.936 8.396-18.301 22.154-4.412 5.341v368.022l6.339 5.735 20.228 18.302 10.576 9.57 12.24-7.324c97.9-58.576 149.019-117.317 151.933-174.59 1.644-32.301-12.558-55.886-23.989-69.445 9.888-15.154 16.52-29.933 19.772-44.092 4.142-18.026 2.976-35.283-3.466-51.293-12.153-30.206-42.2-54.46-89.306-72.09-33.036-12.364-62.664-16.887-63.909-17.073l-10.769-1.613z"></path>
    <path d="M407.723 293.646V162.253l10.332 1.367c.898.119 22.244 3.019 43.146 12.272 38.097 16.867 43.565 40.627 41.445 57.59-2.939 23.515-19.028 41.349-46.526 51.576-19.546 7.27-38.089 8.143-38.869 8.177l-9.528.411zm18.268-109.975v90.249c17.816-2.713 54.692-12.016 58.528-42.702 1.967-15.733-8.367-28.727-30.714-38.621-10.089-4.467-20.443-7.283-27.814-8.926zM409.34 470.037l-.331-132.513 1.826-2.367c7.961-10.318 25.854-17.252 44.526-17.252 17.313 0 31.703 5.854 40.518 16.481 10.772 12.987 10.396 29.731 8.185 41.49-11.841 62.951-80.103 88.773-83.002 89.842l-11.722 4.319zm17.153-126.104l.249 99.94c18.448-9.683 52.885-32.569 60.156-71.225 2.211-11.754.709-20.875-4.463-27.11-5.357-6.46-15.226-10.165-27.073-10.165-12.872 0-23.74 4.13-28.869 8.56zM242.722 564.974a9.955 9.955 0 0 1-5.182-1.454c-54.371-33.022-99.863-75.662-135.212-126.735-47.613-68.792-75.454-151.468-82.748-245.73l-.585-7.562 52.271-19.099-.977-24.432 44.261-20.118V96.177l6.709-2.338c5.422-1.89 133.68-46.427 210.626-59.417 5.442-.922 10.606 2.75 11.525 8.196.919 5.446-2.75 10.605-8.196 11.525-65.477 11.055-172.895 46.835-200.665 56.282v22.297L90.81 152.603l1.023 25.569-51.682 18.884c7.885 87.546 34.319 164.338 78.621 228.347 33.741 48.75 77.193 89.468 129.149 121.023 4.721 2.867 6.223 9.018 3.356 13.738a9.99 9.99 0 0 1-8.555 4.81z"></path>
    <path d="M358.022 607.784c-4.435 0-8.521-2.938-9.715-7.398-1.431-5.341 1.675-10.721 7.07-12.247 7.351-2.08 73.817-21.985 142.893-79.55 41.104-34.254 74.864-75.047 100.346-121.245 30.695-55.651 49.461-119.47 55.823-189.791l-51.68-18.883 1.022-25.568-43.739-19.882v-22.641c-22.855-8.92-103.974-39.512-168.067-50.333-5.445-.919-9.115-6.079-8.195-11.525a9.996 9.996 0 0 1 11.525-8.196C472.5 53.557 569.708 92.85 573.807 94.516l6.235 2.534v23.292l44.261 20.118-.978 24.432 52.272 19.099-.586 7.562c-5.895 76.174-25.705 145.298-58.884 205.451-26.687 48.386-62.032 91.098-105.054 126.95-71.625 59.689-141.264 80.863-150.036 83.368a10.086 10.086 0 0 1-3.015.462z"></path>
  </symbol>
  <symbol xmlns="http://www.w3.org/2000/svg" viewBox="0 0 32 32" id="search">
    <title>search</title>
    <path d="M31.008 27.231l-7.58-6.447c-.784-.705-1.622-1.029-2.299-.998a11.954 11.954 0 0 0 2.87-7.787c0-6.627-5.373-12-12-12s-12 5.373-12 12 5.373 12 12 12c2.972 0 5.691-1.081 7.787-2.87-.031.677.293 1.515.998 2.299l6.447 7.58c1.104 1.226 2.907 1.33 4.007.23s.997-2.903-.23-4.007zM12 20a8 8 0 1 1 0-16 8 8 0 0 1 0 16z"></path>
  </symbol>
</svg>