<?xml version="1.0" encoding="utf-8"?>
<!-- Generated by IcoMoon.io -->
<svg version="1.1" xmlns="http://www.w3.org/2000/svg" xmlns:xlink="http://www.w3.org/1999/xlink" width="560" height="20" viewBox="0 0 560 20">
<svg id="icon-brush" width="20" height="20" viewBox="0 0 20 20" x="0" y="0">
<path d="M2.763 13.563c-1.515 1.488-0.235 3.016-2.247 5.279-0.908 1.023 3.738 0.711 6.039-1.551 0.977-0.961 0.701-2.359-0.346-3.389-1.047-1.028-2.47-1.3-3.446-0.339zM19.539 0.659c-0.776-0.764-9.379 6.129-11.939 8.646-1.271 1.25-1.695 1.92-2.084 2.42-0.17 0.219 0.055 0.285 0.154 0.336 0.504 0.258 0.856 0.496 1.311 0.943s0.699 0.793 0.959 1.289c0.053 0.098 0.121 0.318 0.342 0.152 0.51-0.383 1.191-0.801 2.462-2.049 2.561-2.516 9.573-10.974 8.795-11.737z"></path>
</svg>
<svg id="icon-thumbs-up" width="20" height="20" viewBox="0 0 20 20" x="0" y="0">
<path d="M13.648 7.362c-0.133-0.355 3.539-3.634 1.398-6.291-0.501-0.621-2.201 2.975-4.615 4.603-1.332 0.898-4.431 2.81-4.431 3.867v6.842c0 1.271 4.914 2.617 8.648 2.617 1.369 0 3.352-8.576 3.352-9.938 0-1.368-4.221-1.344-4.352-1.7zM5 7.457c-0.658 0-3 0.4-3 3.123v4.848c0 2.721 2.342 3.021 3 3.021 0.657 0-1-0.572-1-2.26v-6.373c0-1.768 1.657-2.359 1-2.359z"></path>
</svg>
</svg>
